<svg xmlns="http://www.w3.org/2000/svg" width="1240" height="1240"><path d="M587.5 139.61c-45.204 4.505-64.5 13.231-64.5 29.169 0 4.463 2.388 13.086 5.096 18.403l1.876 3.683-2.236.317c-1.404.2-2.351 1.126-2.545 2.49-.239 1.674-1.271 2.356-4.5 2.975-2.305.441-4.738.754-5.406.695-1.587-.141.407 3.739 7.275 14.158 10.631 16.129 25.775 33.918 66.285 77.865C599.93 301.391 609 311.554 609 311.95c0 .397-3.916 5.182-8.703 10.635-12.715 14.485-27.184 32.987-35.878 45.877l-7.621 11.297-15.149-7.26c-15.802-7.573-29.047-12.992-51.417-21.039-10.43-3.751-13.169-5.113-12.806-6.366.951-3.277 13.633-58.212 17.099-74.066 5.365-24.533 8.448-45.801 8.921-61.528.232-7.7.2-12.797-.071-11.327-.741 4.018-8.775 6.459-11.289 3.43-.638-.768-2.009-1.174-3.047-.903-1.601.419-1.987-.243-2.542-4.353-2.581-19.119-8.531-25.612-23.465-25.608-18.124.005-45.853 10.824-84.174 32.842-44.639 25.649-70.929 49.928-70.835 65.419.03 5.048 3.066 10.846 8.349 15.948 2.814 2.716 4.181 4.71 3.514 5.122-.757.469-.781 1.258-.076 2.575.858 1.603.247 2.547-3.922 6.061l-4.938 4.163 4.275 2.893c17.491 11.835 40.078 20.742 100.974 39.816 22.166 6.943 40.404 12.718 40.53 12.835.127.117-1.088 6.934-2.699 15.15-3.753 19.143-6.804 40.359-7.54 52.437-.318 5.225-.798 11.329-1.067 13.563l-.49 4.064-16.216 1.191c-17.337 1.273-36.763 3.927-56.198 7.677-6.61 1.276-12.311 2.024-12.667 1.662-.356-.361-5.002-15.057-10.323-32.657-12.765-42.216-21.434-67.982-27.907-82.943-5.688-13.144-14.289-28.475-16.446-29.313-.728-.283-3.265 1.389-5.636 3.717-3.651 3.582-4.616 4.069-6.294 3.17-1.091-.583-2.198-.846-2.461-.583-.263.263-2.227-1.172-4.366-3.189-4.401-4.151-10.652-7.304-14.543-7.337-15.863-.133-38.888 24.173-65.895 69.562-22.573 37.936-34.674 68.877-33.794 86.408.455 9.081 2.003 12.479 7.502 16.469 2.304 1.671 4.216 3.806 4.25 4.744.034.937-1.045 4.762-2.396 8.5-2.046 5.661-2.147 6.388-.602 4.355l1.854-2.44-.494 2.583c-.479 2.506-.273 2.621 6.83 3.819 4.895.826 13.137 1.056 24.847.695 24.071-.742 37.202-3.025 104.488-18.166 15.932-3.585 29.263-6.188 29.626-5.785.363.404 2.123 5.234 3.912 10.734 4.993 15.349 15.275 41.153 22.132 55.546 3.398 7.135 5.996 13.082 5.772 13.217-14.534 8.741-39.729 27.598-58.218 43.573l-9.811 8.477-5.189-5.011c-13.754-13.278-44.703-42.014-57.69-53.564-25.508-22.688-44.563-36.15-58.845-41.573-13.495-5.124-12.561-5.354-15.188 3.738l-2.277 7.881-4.725.626c-15.659 2.077-24.35 22.363-28.064 65.506-1.546 17.964-.615 70.907 1.492 84.805 4.054 26.739 11.132 42.292 21.107 46.382 1.65.676 3.433 1.267 3.963 1.313.53.046 1.712 3.381 2.627 7.411.915 4.029 2.148 7.811 2.741 8.404 1.579 1.579 12.507-1.356 22.515-6.046 20.307-9.516 39.94-25.224 95.019-76.02C301.391 640.074 311.543 631 311.926 631c.383 0 5.619 4.302 11.635 9.559 14.456 12.633 31.371 25.804 45.069 35.094l11.129 7.549-7.272 15.149c-7.328 15.264-14.985 34.052-21.977 53.922-2.989 8.494-4.131 10.669-5.4 10.284-2.2-.667-41.243-9.705-65.302-15.117-41.713-9.383-68.295-12.695-85.542-10.658-10.614 1.253-19.134 3.71-19.914 5.744-.271.706.458 4.479 1.621 8.383l2.114 7.1-3.004 3.745c-5.979 7.454-6.124 19.618-.456 38.246 8.255 27.131 36.225 77.86 57.894 105 8.261 10.348 19.929 20.825 26.824 24.087 7.123 3.369 11.5 3.621 17.289.992l4.134-1.877 5.332 5.399c2.932 2.969 5.872 5.399 6.532 5.399 2.059 0 11.647-11.42 16.643-19.825 10.416-17.518 18.889-39.778 36.303-95.374 6.943-22.166 12.73-40.416 12.861-40.556.131-.14 5.665.851 12.299 2.202 17.607 3.586 44.49 7.444 56.396 8.093 5.701.311 11.744.772 13.428 1.023l3.061.457 1.193 16.24c1.275 17.358 3.927 36.779 7.679 56.221 1.276 6.61 2.024 12.308 1.662 12.662-.361.354-12.807 4.322-27.657 8.819-58.33 17.662-77.982 24.43-96 33.06-11.664 5.587-23.383 13.134-28.878 18.598l-3.877 3.856 5.856 5.238c5.855 5.236 5.856 5.238 4.537 8.512-3.287 8.159-3.544 9.804-2.28 14.593 1.455 5.515 6.599 13.618 12.968 20.426 22.871 24.451 92.616 64.897 125.504 72.782 21.079 5.054 33.111.558 36.956-13.809 1.068-3.99 1.336-4.24 3.93-3.671 2.196.483 2.784.252 2.784-1.093 0-1.366.596-1.58 3-1.079l5.91 1.232 2.91.607.345-6.857c.544-10.817-.872-30.912-3.205-45.485-2.468-15.418-6.24-33.62-15.407-74.338-3.586-15.932-6.19-29.248-5.787-29.592.404-.344 7.034-2.775 14.734-5.401 18.872-6.437 36.39-13.472 51.759-20.785 7.017-3.339 12.882-5.888 13.031-5.664.15.225 2.916 4.458 6.146 9.408 8.807 13.493 18.208 25.904 32.654 43.107l13.007 15.49-19.299 20.558c-25.399 27.057-35.13 37.683-46.023 50.253-15.539 17.931-28.962 37.037-33.217 47.279-1.721 4.142-1.832 4.038 5.692 5.371 2.673.474 3.75 1.174 3.75 2.437 0 .974.958 2.022 2.13 2.329 1.571.411 1.945 1.032 1.427 2.366-3.019 7.777-2.619 16.947.963 22.043 5.613 7.985 22.387 14.25 47.737 17.828 15.001 2.118 66.853 3.074 83.743 1.545 40.309-3.651 59.975-11.797 62.629-25.943.747-3.981-1.009-14.064-3.181-18.263-1.267-2.45-1.216-2.727.583-3.198 1.122-.293 1.969-1.366 1.969-2.495 0-1.562.897-2.116 4.25-2.623 6.837-1.034 7.27-1.644 4.718-6.647-9.075-17.789-25.556-37.951-73.813-90.302C640.07 938.609 631 928.457 631 928.074c0-.383 4.304-5.619 9.564-11.635 12.174-13.926 25.913-31.571 35.224-45.24 4.008-5.884 7.608-10.671 8-10.636.392.035 7.237 3.238 15.212 7.119 13.83 6.73 34.684 15.232 54.772 22.331 7.23 2.555 9.165 3.629 8.788 4.882-.879 2.92-11.564 49.257-16.051 69.605-7.119 32.288-10.509 55.515-10.509 72.014v7.303l5.936-1.798c4.76-1.441 6.035-1.537 6.439-.485.276.721 1.539 1.458 2.805 1.638 1.925.274 2.416 1.126 2.996 5.2 1.138 7.998 5.599 15.731 10.677 18.51 14.448 7.905 47.97-2.7 96.289-30.463 44.639-25.649 70.929-49.928 70.835-65.419-.029-4.758-2.958-10.789-7.273-14.972-2.674-2.592-3.312-3.795-2.52-4.75.752-.905.73-1.677-.075-2.647-.899-1.083-.147-2.177 3.606-5.25 2.608-2.134 5.202-3.749 5.764-3.587 2.192.632-5.365-4.893-12.657-9.253-17.018-10.176-40.209-18.99-95.298-36.219-22.013-6.885-40.127-12.614-40.254-12.733-.126-.118.914-6.037 2.313-13.152 3.845-19.566 7.304-43.7 7.946-55.437.315-5.775.779-11.873 1.03-13.55l.457-3.05 16.242-1.234c16.544-1.257 41.629-4.717 58.742-8.103 5.225-1.034 9.792-1.583 10.148-1.221.356.362 5.002 15.058 10.323 32.658 20.466 67.685 29.141 90.267 42.373 110.294l3.498 5.294 4.779-4.707c3.996-3.936 5.027-4.503 6.286-3.458.828.687 1.971.962 2.54.61.568-.352 3.097.936 5.618 2.861 2.521 1.925 6.192 4.031 8.157 4.679 7.462 2.463 18.813-2.596 30.112-13.421 24.448-23.421 64.407-92.502 72.122-124.683 4.056-16.92 2.1-28.179-5.853-33.682-4.696-3.25-4.983-4.981-2.053-12.414 1.692-4.294 1.769-4.967.437-3.862-1.429 1.186-1.54 1.047-.971-1.22.623-2.481.436-2.595-6.187-3.763-8.312-1.467-29.109-1.477-41.048-.021-20.019 2.442-36.363 5.654-88.747 17.442-15.932 3.585-29.248 6.188-29.592 5.785-.344-.404-2.775-7.034-5.401-14.734-6.437-18.872-13.472-36.39-20.785-51.759-3.339-7.017-5.888-12.882-5.664-13.031.225-.15 4.458-2.916 9.408-6.146 13.493-8.807 25.904-18.208 43.107-32.654l15.49-13.007 20.558 19.299c51.013 47.887 70.331 64.14 88.787 74.699 8.147 4.661 23.596 10.488 24.699 9.315.37-.394 1.616-3.921 2.77-7.838l2.097-7.121 4.746-.633c11.452-1.527 17.827-10.124 23.314-31.437 4.356-16.923 5.363-29.728 5.398-68.687.035-38.518-.572-46.998-4.656-65-4.004-17.651-12.143-30.534-20.251-32.055-2.841-.533-3.896-1.49-5.931-5.383-1.362-2.604-2.784-6.379-3.162-8.39-.623-3.321-.927-3.602-3.326-3.075-17.05 3.747-37.171 15.775-63.14 37.743-10.22 8.645-17.827 15.512-50.303 45.41-11.5 10.587-21.227 19.25-21.614 19.25-.388 0-5.628-4.304-11.644-9.564-13.926-12.174-31.571-25.913-45.24-35.224-5.884-4.008-10.671-7.608-10.636-8 .035-.392 3.238-7.237 7.119-15.212 6.73-13.83 15.232-34.684 22.331-54.772 2.546-7.206 3.634-9.167 4.882-8.805 2.572.746 56.29 13.191 71.423 16.547 45.311 10.047 75.731 12.286 93.018 6.848 3.608-1.135 3.795-1.388 3.14-4.262-.382-1.681-.85-5.729-1.039-8.995-.289-5.005-.033-6.155 1.624-7.316 4.066-2.849 6.296-9.17 6.257-17.745-.065-14.371-5.621-31.219-19.292-58.5-24.078-48.047-51.235-84.507-69.317-93.061-7.21-3.411-11.543-3.651-17.453-.969-4.157 1.887-4.354 1.889-9.651.066-2.974-1.023-6.644-2.67-8.155-3.661l-2.748-1.8-3.732 4.333c-13.063 15.167-23.963 41.427-44.648 107.568-6.885 22.013-12.614 40.127-12.733 40.253-.118.127-6.936-1.088-15.152-2.699-19.143-3.753-40.359-6.804-52.437-7.54-5.225-.318-11.323-.798-13.552-1.066l-4.052-.487-1.232-16.219c-1.255-16.523-4.716-41.612-8.101-58.718-1.034-5.225-1.583-9.788-1.221-10.14.362-.352 7.633-2.749 16.158-5.327 67.006-20.263 89.193-27.809 107.5-36.563 10.469-5.007 23.782-13.285 26.726-16.619 1.65-1.869 1.592-2.116-1.323-5.653-1.677-2.034-2.521-3.698-1.877-3.698.719 0 .351-1.39-.952-3.599l-2.124-3.6 2.654-5.423c2.017-4.125 2.526-6.373 2.122-9.384-2.157-16.08-24.208-36.807-65.726-61.781-17.714-10.655-42.306-23.299-55.531-28.552-23.421-9.302-42.523-10.077-49.681-2.016-2.407 2.712-5.463 10.076-6.283 15.142-.587 3.627-.987 4.195-2.599 3.683-1.048-.333-1.913-.237-1.921.213-.046 2.419-1.722 3.308-4.551 2.412-7.956-2.521-8.184-2.464-8.683 2.162-.697 6.458 1.027 28.695 3.352 43.243 2.404 15.042 6.217 33.424 15.344 73.966 3.586 15.932 6.19 29.263 5.787 29.626-.404.363-5.234 2.123-10.734 3.912-15.349 4.993-41.153 15.275-55.546 22.132-7.135 3.398-13.095 5.996-13.244 5.772-.15-.225-2.916-4.458-6.146-9.408-8.815-13.505-18.211-25.907-32.71-43.174l-13.063-15.557 5.406-5.634c36.847-38.406 64.337-69.139 77.119-86.219 6.261-8.366 15.933-24 15.263-24.671-.235-.234-2.824-.957-5.753-1.605-4.306-.954-5.387-1.607-5.646-3.41-.175-1.226-.963-2.23-1.75-2.23-1.818 0-1.825.067.673-6.213 2.882-7.243 3.027-16.199.338-20.787-5.026-8.576-21.036-15.357-44.941-19.034-11.843-1.822-19.238-2.2-48-2.454-18.7-.165-35.8-.121-38 .098M169.813 502.683c.721.289 1.584.253 1.916-.079.332-.332-.258-.568-1.312-.525-1.165.048-1.402.285-.604.604m437.335 83.257c-2.943 1.09-7.281 3.463-9.639 5.271-21.737 16.672-18.413 49.359 6.252 61.471 5.188 2.547 6.747 2.818 16.239 2.818s11.051-.271 16.239-2.818c7.313-3.591 13.852-10.13 17.443-17.443 2.504-5.099 2.813-6.798 2.778-15.239-.049-11.515-1.974-16.492-9.426-24.371-7.417-7.842-14.355-10.923-25.534-11.337-7.109-.264-10.124.082-14.352 1.648m453.931 148.643c.048 1.165.285 1.402.604.605.289-.722.253-1.585-.079-1.917-.332-.332-.568.258-.525 1.312" fill="undefined" fill-rule="evenodd"/></svg>